<mxfile host="65bd71144e">
    <diagram id="wqwWpXEHJyhSglY_Wc5V" name="Page-1">
        <mxGraphModel dx="1243" dy="1406" grid="1" gridSize="10" guides="1" tooltips="1" connect="1" arrows="1" fold="1" page="1" pageScale="1" pageWidth="850" pageHeight="1100" math="0" shadow="0">
            <root>
                <mxCell id="0"/>
                <mxCell id="1" parent="0"/>
                <mxCell id="166" value="" style="html=1;rounded=0;strokeWidth=1;" vertex="1" parent="1">
                    <mxGeometry x="-170" y="-530" width="20" height="20" as="geometry"/>
                </mxCell>
                <mxCell id="147" value="" style="html=1;rounded=0;strokeWidth=1;" vertex="1" parent="1">
                    <mxGeometry x="590" y="-690" width="20" height="20" as="geometry"/>
                </mxCell>
                <mxCell id="150" value="" style="html=1;rounded=0;strokeWidth=1;" vertex="1" parent="1">
                    <mxGeometry x="590" y="-570" width="20" height="20" as="geometry"/>
                </mxCell>
                <mxCell id="143" value="" style="html=1;rounded=0;strokeWidth=1;" vertex="1" parent="1">
                    <mxGeometry x="389" y="-731" width="20" height="20" as="geometry"/>
                </mxCell>
                <mxCell id="140" value="" style="html=1;rounded=0;strokeWidth=1;" vertex="1" parent="1">
                    <mxGeometry x="510" y="-731" width="21" height="20" as="geometry"/>
                </mxCell>
                <mxCell id="141" value="" style="endArrow=none;html=1;rounded=0;align=center;verticalAlign=top;endFill=0;labelBackgroundColor=none;endSize=2;strokeWidth=1;" edge="1" source="140" target="142" parent="1">
                    <mxGeometry relative="1" as="geometry"/>
                </mxCell>
                <mxCell id="142" value="" style="ellipse;html=1;fontSize=11;align=center;fillColor=none;points=[];aspect=fixed;resizable=0;verticalAlign=bottom;labelPosition=center;verticalLabelPosition=top;flipH=1;strokeWidth=1;" vertex="1" parent="1">
                    <mxGeometry x="461" y="-725" width="8" height="8" as="geometry"/>
                </mxCell>
                <mxCell id="134" value="" style="html=1;rounded=0;strokeWidth=1;" vertex="1" parent="1">
                    <mxGeometry x="230" y="-730" width="30" height="20" as="geometry"/>
                </mxCell>
                <mxCell id="130" value="" style="html=1;rounded=0;strokeWidth=1;" vertex="1" parent="1">
                    <mxGeometry x="30" y="-570" width="20" height="25" as="geometry"/>
                </mxCell>
                <mxCell id="123" value="" style="html=1;rounded=0;strokeWidth=1;" vertex="1" parent="1">
                    <mxGeometry x="590" y="-370" width="20" height="20" as="geometry"/>
                </mxCell>
                <mxCell id="120" value="" style="html=1;rounded=0;strokeWidth=1;" vertex="1" parent="1">
                    <mxGeometry x="590" y="-490" width="20" height="20" as="geometry"/>
                </mxCell>
                <mxCell id="115" value="" style="html=1;rounded=0;strokeWidth=1;" vertex="1" parent="1">
                    <mxGeometry x="790" y="-330" width="20" height="20" as="geometry"/>
                </mxCell>
                <mxCell id="112" value="" style="html=1;rounded=0;strokeWidth=1;" vertex="1" parent="1">
                    <mxGeometry x="670" y="-330" width="20" height="20" as="geometry"/>
                </mxCell>
                <mxCell id="107" value="" style="html=1;rounded=0;strokeWidth=1;" vertex="1" parent="1">
                    <mxGeometry x="510" y="-330" width="20" height="20" as="geometry"/>
                </mxCell>
                <mxCell id="77" value="" style="html=1;rounded=0;strokeWidth=1;" vertex="1" parent="1">
                    <mxGeometry x="310" y="-370" width="20" height="20" as="geometry"/>
                </mxCell>
                <mxCell id="102" value="" style="html=1;rounded=0;strokeWidth=1;" vertex="1" parent="1">
                    <mxGeometry x="111" y="-330" width="20" height="20" as="geometry"/>
                </mxCell>
                <mxCell id="93" value="" style="html=1;rounded=0;strokeWidth=1;" vertex="1" parent="1">
                    <mxGeometry x="230.56" y="-330" width="19.44" height="20" as="geometry"/>
                </mxCell>
                <mxCell id="96" value="" style="html=1;rounded=0;strokeWidth=1;" vertex="1" parent="1">
                    <mxGeometry x="30" y="-480" width="20" height="20" as="geometry"/>
                </mxCell>
                <mxCell id="99" value="" style="html=1;rounded=0;strokeWidth=1;" vertex="1" parent="1">
                    <mxGeometry x="30" y="-370" width="20" height="20" as="geometry"/>
                </mxCell>
                <mxCell id="88" value="" style="html=1;rounded=0;strokeWidth=1;" vertex="1" parent="1">
                    <mxGeometry x="230" y="-530" width="20" height="20" as="geometry"/>
                </mxCell>
                <mxCell id="85" value="" style="html=1;rounded=0;strokeWidth=1;" vertex="1" parent="1">
                    <mxGeometry x="109.44" y="-530" width="20" height="20" as="geometry"/>
                </mxCell>
                <mxCell id="80" value="" style="html=1;rounded=0;strokeWidth=1;" vertex="1" parent="1">
                    <mxGeometry x="310" y="-490" width="20" height="20" as="geometry"/>
                </mxCell>
                <mxCell id="68" value="" style="html=1;rounded=0;strokeWidth=1;" vertex="1" parent="1">
                    <mxGeometry x="389" y="-330" width="20" height="20" as="geometry"/>
                </mxCell>
                <mxCell id="69" value="" style="endArrow=none;html=1;rounded=0;align=center;verticalAlign=top;endFill=0;labelBackgroundColor=none;endSize=2;strokeWidth=1;" edge="1" source="68" target="70" parent="1">
                    <mxGeometry relative="1" as="geometry"/>
                </mxCell>
                <mxCell id="70" value="" style="ellipse;html=1;fontSize=11;align=center;fillColor=none;points=[];aspect=fixed;resizable=0;verticalAlign=bottom;labelPosition=center;verticalLabelPosition=top;flipH=1;strokeWidth=1;" vertex="1" parent="1">
                    <mxGeometry x="450" y="-324" width="8" height="8" as="geometry"/>
                </mxCell>
                <mxCell id="71" value="«Component»&lt;br&gt;&lt;b&gt;Prekės peržiūra&lt;/b&gt;" style="html=1;dropTarget=0;rounded=0;" vertex="1" parent="1">
                    <mxGeometry x="240" y="-360" width="160" height="80" as="geometry"/>
                </mxCell>
                <mxCell id="72" value="" style="shape=module;jettyWidth=8;jettyHeight=4;rounded=0;" vertex="1" parent="71">
                    <mxGeometry x="1" width="20" height="20" relative="1" as="geometry">
                        <mxPoint x="-27" y="7" as="offset"/>
                    </mxGeometry>
                </mxCell>
                <mxCell id="75" value="«Component»&lt;br&gt;&lt;b&gt;Prekės sukūrimas&lt;/b&gt;" style="html=1;dropTarget=0;strokeWidth=1;" vertex="1" parent="1">
                    <mxGeometry x="240" y="-560" width="160" height="80" as="geometry"/>
                </mxCell>
                <mxCell id="76" value="" style="shape=module;jettyWidth=8;jettyHeight=4;strokeWidth=1;" vertex="1" parent="75">
                    <mxGeometry x="1" width="20" height="20" relative="1" as="geometry">
                        <mxPoint x="-27" y="7" as="offset"/>
                    </mxGeometry>
                </mxCell>
                <mxCell id="78" value="" style="endArrow=none;html=1;rounded=0;align=center;verticalAlign=top;endFill=0;labelBackgroundColor=none;endSize=2;strokeWidth=1;" edge="1" source="77" target="79" parent="1">
                    <mxGeometry relative="1" as="geometry"/>
                </mxCell>
                <mxCell id="79" value="" style="ellipse;html=1;fontSize=11;align=center;fillColor=none;points=[];aspect=fixed;resizable=0;verticalAlign=bottom;labelPosition=center;verticalLabelPosition=top;flipH=1;strokeWidth=1;" vertex="1" parent="1">
                    <mxGeometry x="316" y="-420" width="8" height="8" as="geometry"/>
                </mxCell>
                <mxCell id="81" value="" style="endArrow=none;html=1;rounded=0;align=center;verticalAlign=top;endFill=0;labelBackgroundColor=none;endSize=2;strokeWidth=1;" edge="1" source="80" target="82" parent="1">
                    <mxGeometry relative="1" as="geometry"/>
                </mxCell>
                <mxCell id="82" value="" style="shape=requiredInterface;html=1;fontSize=11;align=center;fillColor=none;points=[];aspect=fixed;resizable=0;verticalAlign=bottom;labelPosition=center;verticalLabelPosition=top;flipH=1;strokeWidth=1;rotation=90;" vertex="1" parent="1">
                    <mxGeometry x="317.5" y="-430" width="5" height="10" as="geometry"/>
                </mxCell>
                <mxCell id="83" value="«Component»&lt;br&gt;&lt;b&gt;Administratorius&lt;/b&gt;" style="html=1;dropTarget=0;strokeWidth=1;" vertex="1" parent="1">
                    <mxGeometry x="-40" y="-560" width="160" height="90" as="geometry"/>
                </mxCell>
                <mxCell id="84" value="" style="shape=module;jettyWidth=8;jettyHeight=4;strokeWidth=1;" vertex="1" parent="83">
                    <mxGeometry x="1" width="20" height="20" relative="1" as="geometry">
                        <mxPoint x="-27" y="7" as="offset"/>
                    </mxGeometry>
                </mxCell>
                <mxCell id="86" value="" style="endArrow=none;html=1;rounded=0;align=center;verticalAlign=top;endFill=0;labelBackgroundColor=none;endSize=2;strokeWidth=1;exitX=1;exitY=0.5;exitDx=0;exitDy=0;" edge="1" source="85" target="87" parent="1">
                    <mxGeometry relative="1" as="geometry">
                        <mxPoint x="230" y="-520" as="sourcePoint"/>
                    </mxGeometry>
                </mxCell>
                <mxCell id="87" value="" style="ellipse;html=1;fontSize=11;align=center;fillColor=none;points=[];aspect=fixed;resizable=0;verticalAlign=bottom;labelPosition=center;verticalLabelPosition=top;flipH=1;strokeWidth=1;" vertex="1" parent="1">
                    <mxGeometry x="170" y="-524" width="8" height="8" as="geometry"/>
                </mxCell>
                <mxCell id="89" value="" style="endArrow=none;html=1;rounded=0;align=center;verticalAlign=top;endFill=0;labelBackgroundColor=none;endSize=2;strokeWidth=1;" edge="1" target="90" parent="1">
                    <mxGeometry relative="1" as="geometry">
                        <mxPoint x="230" y="-520" as="sourcePoint"/>
                    </mxGeometry>
                </mxCell>
                <mxCell id="90" value="" style="shape=requiredInterface;html=1;fontSize=11;align=center;fillColor=none;points=[];aspect=fixed;resizable=0;verticalAlign=bottom;labelPosition=center;verticalLabelPosition=top;flipH=1;strokeWidth=1;rotation=-180;" vertex="1" parent="1">
                    <mxGeometry x="180" y="-525" width="5" height="10" as="geometry"/>
                </mxCell>
                <mxCell id="91" value="«Component»&lt;br&gt;&lt;b&gt;Prekės redagavimas&lt;/b&gt;" style="html=1;dropTarget=0;rounded=0;" vertex="1" parent="1">
                    <mxGeometry x="-40" y="-360" width="160" height="80" as="geometry"/>
                </mxCell>
                <mxCell id="92" value="" style="shape=module;jettyWidth=8;jettyHeight=4;rounded=0;" vertex="1" parent="91">
                    <mxGeometry x="1" width="20" height="20" relative="1" as="geometry">
                        <mxPoint x="-27" y="7" as="offset"/>
                    </mxGeometry>
                </mxCell>
                <mxCell id="94" value="" style="endArrow=none;html=1;rounded=0;align=center;verticalAlign=top;endFill=0;labelBackgroundColor=none;endSize=2;strokeWidth=1;" edge="1" source="93" target="95" parent="1">
                    <mxGeometry relative="1" as="geometry"/>
                </mxCell>
                <mxCell id="95" value="" style="ellipse;html=1;fontSize=11;align=center;fillColor=none;points=[];aspect=fixed;resizable=0;verticalAlign=bottom;labelPosition=center;verticalLabelPosition=top;flipH=1;strokeWidth=1;" vertex="1" parent="1">
                    <mxGeometry x="178" y="-324" width="8" height="8" as="geometry"/>
                </mxCell>
                <mxCell id="97" value="" style="endArrow=none;html=1;rounded=0;align=center;verticalAlign=top;endFill=0;labelBackgroundColor=none;endSize=2;strokeWidth=1;" edge="1" source="96" target="98" parent="1">
                    <mxGeometry relative="1" as="geometry"/>
                </mxCell>
                <mxCell id="98" value="" style="ellipse;html=1;fontSize=11;align=center;fillColor=none;points=[];aspect=fixed;resizable=0;verticalAlign=bottom;labelPosition=center;verticalLabelPosition=top;flipH=1;strokeWidth=1;" vertex="1" parent="1">
                    <mxGeometry x="36" y="-422" width="8" height="8" as="geometry"/>
                </mxCell>
                <mxCell id="100" value="" style="endArrow=none;html=1;rounded=0;align=center;verticalAlign=top;endFill=0;labelBackgroundColor=none;endSize=2;strokeWidth=1;" edge="1" source="99" target="101" parent="1">
                    <mxGeometry relative="1" as="geometry"/>
                </mxCell>
                <mxCell id="101" value="" style="shape=requiredInterface;html=1;fontSize=11;align=center;fillColor=none;points=[];aspect=fixed;resizable=0;verticalAlign=bottom;labelPosition=center;verticalLabelPosition=top;flipH=1;strokeWidth=1;rotation=-90;" vertex="1" parent="1">
                    <mxGeometry x="37.5" y="-414" width="5" height="10" as="geometry"/>
                </mxCell>
                <mxCell id="103" value="" style="endArrow=none;html=1;rounded=0;align=center;verticalAlign=top;endFill=0;labelBackgroundColor=none;endSize=2;strokeWidth=1;" edge="1" source="102" target="104" parent="1">
                    <mxGeometry relative="1" as="geometry"/>
                </mxCell>
                <mxCell id="104" value="" style="shape=requiredInterface;html=1;fontSize=11;align=center;fillColor=none;points=[];aspect=fixed;resizable=0;verticalAlign=bottom;labelPosition=center;verticalLabelPosition=top;flipH=1;strokeWidth=1;rotation=0;" vertex="1" parent="1">
                    <mxGeometry x="171.5" y="-325" width="5" height="10" as="geometry"/>
                </mxCell>
                <mxCell id="105" value="«Component»&lt;br&gt;&lt;b&gt;Krepšelio formavimas&lt;/b&gt;" style="html=1;dropTarget=0;rounded=0;" vertex="1" parent="1">
                    <mxGeometry x="520" y="-360" width="160" height="80" as="geometry"/>
                </mxCell>
                <mxCell id="106" value="" style="shape=module;jettyWidth=8;jettyHeight=4;rounded=0;" vertex="1" parent="105">
                    <mxGeometry x="1" width="20" height="20" relative="1" as="geometry">
                        <mxPoint x="-27" y="7" as="offset"/>
                    </mxGeometry>
                </mxCell>
                <mxCell id="108" value="" style="endArrow=none;html=1;rounded=0;align=center;verticalAlign=top;endFill=0;labelBackgroundColor=none;endSize=2;strokeWidth=1;" edge="1" target="109" parent="1">
                    <mxGeometry relative="1" as="geometry">
                        <mxPoint x="510" y="-320" as="sourcePoint"/>
                    </mxGeometry>
                </mxCell>
                <mxCell id="109" value="" style="shape=requiredInterface;html=1;fontSize=11;align=center;fillColor=none;points=[];aspect=fixed;resizable=0;verticalAlign=bottom;labelPosition=center;verticalLabelPosition=top;flipH=1;strokeWidth=1;rotation=-180;" vertex="1" parent="1">
                    <mxGeometry x="460" y="-325" width="5" height="10" as="geometry"/>
                </mxCell>
                <mxCell id="110" value="«Component»&lt;br&gt;&lt;b&gt;Užsakymas&lt;/b&gt;" style="html=1;dropTarget=0;rounded=0;" vertex="1" parent="1">
                    <mxGeometry x="800" y="-360" width="160" height="80" as="geometry"/>
                </mxCell>
                <mxCell id="111" value="" style="shape=module;jettyWidth=8;jettyHeight=4;rounded=0;" vertex="1" parent="110">
                    <mxGeometry x="1" width="20" height="20" relative="1" as="geometry">
                        <mxPoint x="-27" y="7" as="offset"/>
                    </mxGeometry>
                </mxCell>
                <mxCell id="113" value="" style="endArrow=none;html=1;rounded=0;align=center;verticalAlign=top;endFill=0;labelBackgroundColor=none;endSize=2;strokeWidth=1;" edge="1" source="112" target="114" parent="1">
                    <mxGeometry relative="1" as="geometry"/>
                </mxCell>
                <mxCell id="114" value="" style="ellipse;html=1;fontSize=11;align=center;fillColor=none;points=[];aspect=fixed;resizable=0;verticalAlign=bottom;labelPosition=center;verticalLabelPosition=top;flipH=1;strokeWidth=1;" vertex="1" parent="1">
                    <mxGeometry x="732" y="-324" width="8" height="8" as="geometry"/>
                </mxCell>
                <mxCell id="116" value="" style="endArrow=none;html=1;rounded=0;align=center;verticalAlign=top;endFill=0;labelBackgroundColor=none;endSize=2;strokeWidth=1;" edge="1" source="115" target="117" parent="1">
                    <mxGeometry relative="1" as="geometry"/>
                </mxCell>
                <mxCell id="117" value="" style="shape=requiredInterface;html=1;fontSize=11;align=center;fillColor=none;points=[];aspect=fixed;resizable=0;verticalAlign=bottom;labelPosition=center;verticalLabelPosition=top;flipH=1;strokeWidth=1;rotation=-180;" vertex="1" parent="1">
                    <mxGeometry x="741" y="-325" width="5" height="10" as="geometry"/>
                </mxCell>
                <mxCell id="118" value="«Component»&lt;br&gt;&lt;b&gt;&amp;nbsp;Suderinamumo &lt;br&gt;tikrinimas&lt;/b&gt;" style="html=1;dropTarget=0;rounded=0;" vertex="1" parent="1">
                    <mxGeometry x="520" y="-560" width="160" height="80" as="geometry"/>
                </mxCell>
                <mxCell id="119" value="" style="shape=module;jettyWidth=8;jettyHeight=4;rounded=0;" vertex="1" parent="118">
                    <mxGeometry x="1" width="20" height="20" relative="1" as="geometry">
                        <mxPoint x="-27" y="7" as="offset"/>
                    </mxGeometry>
                </mxCell>
                <mxCell id="121" value="" style="endArrow=none;html=1;rounded=0;align=center;verticalAlign=top;endFill=0;labelBackgroundColor=none;endSize=2;strokeWidth=1;" edge="1" source="120" target="122" parent="1">
                    <mxGeometry relative="1" as="geometry"/>
                </mxCell>
                <mxCell id="122" value="" style="ellipse;html=1;fontSize=11;align=center;fillColor=none;points=[];aspect=fixed;resizable=0;verticalAlign=bottom;labelPosition=center;verticalLabelPosition=top;flipH=1;strokeWidth=1;" vertex="1" parent="1">
                    <mxGeometry x="596" y="-428" width="8" height="8" as="geometry"/>
                </mxCell>
                <mxCell id="124" value="" style="endArrow=none;html=1;rounded=0;align=center;verticalAlign=top;endFill=0;labelBackgroundColor=none;endSize=2;strokeWidth=1;" edge="1" source="123" target="125" parent="1">
                    <mxGeometry relative="1" as="geometry"/>
                </mxCell>
                <mxCell id="125" value="" style="shape=requiredInterface;html=1;fontSize=11;align=center;fillColor=none;points=[];aspect=fixed;resizable=0;verticalAlign=bottom;labelPosition=center;verticalLabelPosition=top;flipH=1;strokeWidth=1;rotation=-90;" vertex="1" parent="1">
                    <mxGeometry x="597.5" y="-420" width="5" height="10" as="geometry"/>
                </mxCell>
                <mxCell id="126" value="«Component»&lt;br&gt;&lt;b&gt;Taisyklių sąrašas&lt;/b&gt;" style="html=1;dropTarget=0;strokeWidth=1;" vertex="1" parent="1">
                    <mxGeometry x="520" y="-760" width="160" height="80" as="geometry"/>
                </mxCell>
                <mxCell id="127" value="" style="shape=module;jettyWidth=8;jettyHeight=4;strokeWidth=1;" vertex="1" parent="126">
                    <mxGeometry x="1" width="20" height="20" relative="1" as="geometry">
                        <mxPoint x="-27" y="7" as="offset"/>
                    </mxGeometry>
                </mxCell>
                <mxCell id="128" value="«Component»&lt;br&gt;&lt;b&gt;Taisyklių tvarkymas&lt;/b&gt;" style="html=1;dropTarget=0;strokeWidth=1;" vertex="1" parent="1">
                    <mxGeometry x="240" y="-760" width="160" height="80" as="geometry"/>
                </mxCell>
                <mxCell id="129" value="" style="shape=module;jettyWidth=8;jettyHeight=4;strokeWidth=1;" vertex="1" parent="128">
                    <mxGeometry x="1" width="20" height="20" relative="1" as="geometry">
                        <mxPoint x="-27" y="7" as="offset"/>
                    </mxGeometry>
                </mxCell>
                <mxCell id="131" value="" style="endArrow=none;html=1;rounded=0;align=center;verticalAlign=top;endFill=0;labelBackgroundColor=none;endSize=2;strokeWidth=1;" edge="1" source="130" target="132" parent="1">
                    <mxGeometry relative="1" as="geometry"/>
                </mxCell>
                <mxCell id="132" value="" style="ellipse;html=1;fontSize=11;align=center;fillColor=none;points=[];aspect=fixed;resizable=0;verticalAlign=bottom;labelPosition=center;verticalLabelPosition=top;flipH=1;strokeWidth=1;" vertex="1" parent="1">
                    <mxGeometry x="36" y="-724" width="8" height="8" as="geometry"/>
                </mxCell>
                <mxCell id="135" value="" style="endArrow=none;html=1;rounded=0;align=center;verticalAlign=top;endFill=0;labelBackgroundColor=none;endSize=2;strokeWidth=1;" edge="1" source="134" target="136" parent="1">
                    <mxGeometry relative="1" as="geometry"/>
                </mxCell>
                <mxCell id="136" value="" style="shape=requiredInterface;html=1;fontSize=11;align=center;fillColor=none;points=[];aspect=fixed;resizable=0;verticalAlign=bottom;labelPosition=center;verticalLabelPosition=top;flipH=1;strokeWidth=1;rotation=-181;" vertex="1" parent="1">
                    <mxGeometry x="45" y="-725" width="5" height="10" as="geometry"/>
                </mxCell>
                <mxCell id="144" value="" style="endArrow=none;html=1;rounded=0;align=center;verticalAlign=top;endFill=0;labelBackgroundColor=none;endSize=2;strokeWidth=1;" edge="1" source="143" target="145" parent="1">
                    <mxGeometry relative="1" as="geometry"/>
                </mxCell>
                <mxCell id="145" value="" style="shape=requiredInterface;html=1;fontSize=11;align=center;fillColor=none;points=[];aspect=fixed;resizable=0;verticalAlign=bottom;labelPosition=center;verticalLabelPosition=top;flipH=1;strokeWidth=1;" vertex="1" parent="1">
                    <mxGeometry x="455" y="-726" width="5" height="10" as="geometry"/>
                </mxCell>
                <mxCell id="148" value="" style="endArrow=none;html=1;rounded=0;align=center;verticalAlign=top;endFill=0;labelBackgroundColor=none;endSize=2;strokeWidth=1;" edge="1" source="147" target="149" parent="1">
                    <mxGeometry relative="1" as="geometry"/>
                </mxCell>
                <mxCell id="149" value="" style="ellipse;html=1;fontSize=11;align=center;fillColor=none;points=[];aspect=fixed;resizable=0;verticalAlign=bottom;labelPosition=center;verticalLabelPosition=top;flipH=1;strokeWidth=1;" vertex="1" parent="1">
                    <mxGeometry x="596" y="-627" width="8" height="8" as="geometry"/>
                </mxCell>
                <mxCell id="151" value="" style="endArrow=none;html=1;rounded=0;align=center;verticalAlign=top;endFill=0;labelBackgroundColor=none;endSize=2;strokeWidth=1;" edge="1" source="150" target="152" parent="1">
                    <mxGeometry relative="1" as="geometry"/>
                </mxCell>
                <mxCell id="152" value="" style="shape=requiredInterface;html=1;fontSize=11;align=center;fillColor=none;points=[];aspect=fixed;resizable=0;verticalAlign=bottom;labelPosition=center;verticalLabelPosition=top;flipH=1;strokeWidth=1;rotation=-90;" vertex="1" parent="1">
                    <mxGeometry x="597.5" y="-620" width="5" height="10" as="geometry"/>
                </mxCell>
                <mxCell id="153" value="Užpildomi &lt;br&gt;duomenys" style="text;html=1;align=center;verticalAlign=middle;resizable=0;points=[];autosize=1;strokeColor=none;fillColor=none;" vertex="1" parent="1">
                    <mxGeometry x="140" y="-565" width="80" height="40" as="geometry"/>
                </mxCell>
                <mxCell id="154" value="Atsiranda elementas,&lt;br&gt;kuri galima peržiūrėti" style="text;html=1;align=center;verticalAlign=middle;resizable=0;points=[];autosize=1;strokeColor=none;fillColor=none;" vertex="1" parent="1">
                    <mxGeometry x="314" y="-441" width="140" height="40" as="geometry"/>
                </mxCell>
                <mxCell id="155" value="Duomenys&lt;br&gt;atnaujinami" style="text;html=1;align=center;verticalAlign=middle;resizable=0;points=[];autosize=1;strokeColor=none;fillColor=none;" vertex="1" parent="1">
                    <mxGeometry x="136" y="-364" width="80" height="40" as="geometry"/>
                </mxCell>
                <mxCell id="156" value="Redaguojami, pildomi &lt;br&gt;duomenys" style="text;html=1;align=center;verticalAlign=middle;resizable=0;points=[];autosize=1;strokeColor=none;fillColor=none;" vertex="1" parent="1">
                    <mxGeometry x="35" y="-438" width="140" height="40" as="geometry"/>
                </mxCell>
                <mxCell id="157" value="Pildomi duomenys" style="text;html=1;align=center;verticalAlign=middle;resizable=0;points=[];autosize=1;strokeColor=none;fillColor=none;" vertex="1" parent="1">
                    <mxGeometry x="-20" y="-756" width="120" height="30" as="geometry"/>
                </mxCell>
                <mxCell id="158" value="Redaguojami, pildomi &lt;br&gt;duomenys" style="text;html=1;align=center;verticalAlign=middle;resizable=0;points=[];autosize=1;strokeColor=none;fillColor=none;" vertex="1" parent="1">
                    <mxGeometry x="388.5" y="-766" width="140" height="40" as="geometry"/>
                </mxCell>
                <mxCell id="160" value="Pateikiamas&lt;br&gt;taisyklių&lt;br&gt;sąrašas" style="text;html=1;align=center;verticalAlign=middle;resizable=0;points=[];autosize=1;strokeColor=none;fillColor=none;" vertex="1" parent="1">
                    <mxGeometry x="600" y="-653" width="90" height="60" as="geometry"/>
                </mxCell>
                <mxCell id="161" value="Tikrinamos &lt;br&gt;taisyklės" style="text;html=1;align=center;verticalAlign=middle;resizable=0;points=[];autosize=1;strokeColor=none;fillColor=none;" vertex="1" parent="1">
                    <mxGeometry x="600" y="-444" width="80" height="40" as="geometry"/>
                </mxCell>
                <mxCell id="162" value="Į krepšeli &lt;br&gt;dedamos prekės" style="text;html=1;align=center;verticalAlign=middle;resizable=0;points=[];autosize=1;strokeColor=none;fillColor=none;" vertex="1" parent="1">
                    <mxGeometry x="405" y="-364" width="110" height="40" as="geometry"/>
                </mxCell>
                <mxCell id="163" value="Pildomi pristatymo &lt;br&gt;duomenys" style="text;html=1;align=center;verticalAlign=middle;resizable=0;points=[];autosize=1;strokeColor=none;fillColor=none;" vertex="1" parent="1">
                    <mxGeometry x="679" y="-365" width="120" height="40" as="geometry"/>
                </mxCell>
                <mxCell id="164" value="«Component»&lt;br&gt;&lt;b&gt;Paskyra&lt;/b&gt;" style="html=1;dropTarget=0;strokeWidth=1;" vertex="1" parent="1">
                    <mxGeometry x="-320" y="-560" width="160" height="90" as="geometry"/>
                </mxCell>
                <mxCell id="165" value="" style="shape=module;jettyWidth=8;jettyHeight=4;strokeWidth=1;" vertex="1" parent="164">
                    <mxGeometry x="1" width="20" height="20" relative="1" as="geometry">
                        <mxPoint x="-27" y="7" as="offset"/>
                    </mxGeometry>
                </mxCell>
                <mxCell id="167" value="" style="endArrow=none;html=1;rounded=0;align=center;verticalAlign=top;endFill=0;labelBackgroundColor=none;endSize=2;strokeWidth=1;" edge="1" source="166" target="168" parent="1">
                    <mxGeometry relative="1" as="geometry"/>
                </mxCell>
                <mxCell id="168" value="" style="ellipse;html=1;fontSize=11;align=center;fillColor=none;points=[];aspect=fixed;resizable=0;verticalAlign=bottom;labelPosition=center;verticalLabelPosition=top;flipH=1;strokeWidth=1;" vertex="1" parent="1">
                    <mxGeometry x="-107" y="-524" width="8" height="8" as="geometry"/>
                </mxCell>
                <mxCell id="169" value="" style="html=1;rounded=0;strokeWidth=1;" vertex="1" parent="1">
                    <mxGeometry x="-50" y="-530" width="20" height="20" as="geometry"/>
                </mxCell>
                <mxCell id="170" value="" style="endArrow=none;html=1;rounded=0;align=center;verticalAlign=top;endFill=0;labelBackgroundColor=none;endSize=2;strokeWidth=1;" edge="1" source="169" target="171" parent="1">
                    <mxGeometry relative="1" as="geometry"/>
                </mxCell>
                <mxCell id="171" value="" style="shape=requiredInterface;html=1;fontSize=11;align=center;fillColor=none;points=[];aspect=fixed;resizable=0;verticalAlign=bottom;labelPosition=center;verticalLabelPosition=top;flipH=1;strokeWidth=1;rotation=-180;" vertex="1" parent="1">
                    <mxGeometry x="-98" y="-525" width="5" height="10" as="geometry"/>
                </mxCell>
                <mxCell id="173" value="Paskyros&lt;br&gt;autentifikacija" style="text;html=1;align=center;verticalAlign=middle;resizable=0;points=[];autosize=1;strokeColor=none;fillColor=none;" vertex="1" parent="1">
                    <mxGeometry x="-145.5" y="-570" width="100" height="40" as="geometry"/>
                </mxCell>
            </root>
        </mxGraphModel>
    </diagram>
</mxfile>